<svg xmlns="http://www.w3.org/2000/svg" width="101" height="100" viewBox="0 0 101 100" fill="none">
  <path d="M80.0918 0H20.9082C9.63705 0 0.5 9.13705 0.5 20.4082V79.5918C0.5 90.863 9.63705 100 20.9082 100H80.0918C91.363 100 100.5 90.863 100.5 79.5918V20.4082C100.5 9.13705 91.363 0 80.0918 0Z" fill="url(#logo-linear-gradient)"/>
  <path d="M20.5057 47.1504C20.7941 47.5062 21.2112 47.7336 21.6664 47.7833C22.1217 47.833 22.5781 47.7009 22.9363 47.4158L24.5384 46.128V73.0239C24.5401 73.8557 24.8709 74.653 25.4587 75.2416C26.0464 75.8301 26.8433 76.162 27.6752 76.1647H72.2854C73.1177 76.1625 73.9153 75.831 74.5038 75.2424C75.0924 74.6539 75.424 73.8562 75.4261 73.0239V46.1831L76.9792 47.4321C77.2872 47.6756 77.6682 47.8086 78.0608 47.8097C78.321 47.8099 78.578 47.7506 78.8117 47.6364C79.0456 47.5222 79.2502 47.3559 79.4098 47.1504C79.6958 46.7917 79.8283 46.3345 79.7786 45.8785C79.7289 45.4224 79.5009 45.0046 79.1445 44.7158L51.8405 22.7627L51.2139 22.4504C50.8228 22.2787 50.4003 22.1899 49.9731 22.1899C49.5459 22.1899 49.1234 22.2787 48.7323 22.4504L48.0752 22.7546L20.7731 44.7097C20.4174 44.998 20.19 45.4151 20.1403 45.8703C20.0906 46.3255 20.2227 46.782 20.5078 47.1402" fill="white"/>
  <path d="M60.9265 63.0306C61.7999 62.6799 62.5873 62.1445 63.2346 61.4612C63.8704 60.7799 64.3662 59.9805 64.6939 59.1082C65.0556 58.1995 65.2365 57.2289 65.2265 56.251C65.2446 55.2624 65.0635 54.2803 64.6939 53.3633C64.3653 52.5004 63.8694 51.7112 63.2346 51.0408C62.5818 50.3604 61.7963 49.8213 60.9265 49.4571C59.9736 49.0774 58.9564 48.8855 57.9306 48.8918H53.7101V63.6735H57.9306C58.9613 63.6536 59.9784 63.4353 60.9265 63.0306ZM57.9306 44.4367C59.5576 44.4274 61.1712 44.7309 62.6836 45.3306C64.1175 45.9244 65.4273 46.7821 66.5448 47.8591C67.6473 48.9313 68.5268 50.211 69.1326 51.6245C69.7671 53.0838 70.083 54.6618 70.0592 56.253C70.0752 57.8435 69.7596 59.4199 69.1326 60.8816C68.5062 62.2842 67.6293 63.5609 66.5448 64.6489C65.4413 65.7313 64.127 66.5754 62.6836 67.1286C61.1801 67.762 59.5619 68.0774 57.9306 68.0551H48.8775V44.4367H57.9306Z" fill="#231F20"/>
  <path d="M37.1255 54.2149C36.44 54.2141 35.776 53.9759 35.2466 53.5405C34.7172 53.1051 34.355 52.4996 34.2219 51.8272C34.0887 51.1548 34.1928 50.457 34.5164 49.8528C34.84 49.2485 35.3631 48.7751 35.9966 48.5132C36.63 48.2513 37.3347 48.2171 37.9905 48.4164C38.6464 48.6159 39.2127 49.0363 39.5933 49.6065C39.9739 50.1766 40.145 50.8611 40.0775 51.5432C40.0101 52.2254 39.7083 52.863 39.2235 53.3476C38.9479 53.6229 38.6207 53.8411 38.2608 53.9899C37.9008 54.1387 37.515 54.2152 37.1255 54.2149ZM37.1255 44.0313C35.6976 44.0309 34.3018 44.4538 33.1145 45.2469C31.9271 46.0399 31.0015 47.1672 30.455 48.4863C29.9083 49.8054 29.7652 51.2569 30.0437 52.6573C30.3222 54.0578 31.0097 55.3441 32.0193 56.3537C33.0289 57.3634 34.3153 58.051 35.7157 58.3294C37.1161 58.6079 38.5677 58.4647 39.8868 57.9181C41.2059 57.3715 42.3332 56.446 43.1262 55.2586C43.9192 54.0712 44.3423 52.6754 44.3419 51.2476C44.3413 49.3338 43.5808 47.4987 42.2276 46.1455C40.8744 44.7922 39.0393 44.0318 37.1255 44.0313Z" fill="#231F20"/>
  <defs>
    <linearGradient id="logo-linear-gradient" x1="50.5" y1="0" x2="50.5" y2="100" gradientUnits="userSpaceOnUse">
      <stop stop-color="#7FB0F8"/>
      <stop offset="1" stop-color="#D5D3FF"/>
    </linearGradient>
  </defs>
</svg>
