<svg width="133" height="45" viewBox="0 0 133 45" fill="none" xmlns="http://www.w3.org/2000/svg">
<g clip-path="url(#clip0_241_149)">
<path d="M1.15652 2.86369L18.0087 1.14551L34.7783 2.86369V33.5455L18.0087 43.3637L1.15652 33.5455V2.86369Z" stroke="black" stroke-width="2.791"/>
<path d="M1.40434 17.0999L17.4304 7.85449L34.6956 17.0999V18.0818L18.0087 27.8181L1.40434 18.0818V17.0999V17.0999Z" stroke="black" stroke-width="2.057"/>
<path d="M18.0087 26.8364L20.4043 25.2818L18.0087 23.7273V22.1727L21.8913 24.4637L23.1304 23.7273L18.0087 20.7V18.9L24.5348 22.8273L25.8565 22.0909L18.0087 17.2637V15.5455L28.6652 22.0091V28.8818L18.0087 35.2637L7.18695 29.0455V27.2455L18.0087 33.7091V31.9909L7.18695 25.6909V24.1364L18.0087 30.3546V26.8364V26.8364ZM55.1 32.6455C55.3478 32.6455 55.5956 32.5637 55.7609 32.4818V34.1182C55.2652 34.2818 54.7696 34.3637 54.2739 34.3637C53.3652 34.3637 52.6217 34.0364 52.2087 33.1364C51.2174 33.9546 49.9783 34.4455 48.3261 34.4455C46.4261 34.4455 44.6913 33.4637 44.6913 31.3364C44.6913 28.7182 47.1696 27.9 49.2348 27.9C50.1435 27.9 51.0522 27.9818 51.8783 28.2273V27.9C51.8783 26.5909 50.9696 25.7727 49.1522 25.7727C47.913 25.7727 46.5913 26.0182 45.4348 26.5909V24.5455C46.6739 24.1364 47.9956 23.8909 49.4 23.8909C52.2913 23.8909 54.1913 25.2818 54.1913 28.3091V31.9091C54.2739 32.4818 54.6869 32.6455 55.1 32.6455ZM47.0869 31.2546C47.0869 32.2364 47.9956 32.7273 48.9869 32.7273C50.0609 32.7273 51.1348 32.3182 51.9609 31.5V29.7818C51.2174 29.6182 50.4739 29.5364 49.7304 29.5364C48.4913 29.6182 47.0869 30.0273 47.0869 31.2546V31.2546ZM62.3696 23.8091C63.5261 23.8091 64.6 24.0546 65.5087 24.6273V26.6727C64.7652 26.1818 63.6913 25.8546 62.7 25.8546C60.8826 25.8546 59.0652 26.8364 59.0652 29.2091C59.0652 31.5 60.8826 32.5637 62.7 32.5637C63.7739 32.5637 64.7652 32.3182 65.6739 31.7455V33.8727C64.6826 34.3637 63.6087 34.6091 62.287 34.6091C59.5609 34.6091 56.7522 32.9727 56.7522 29.2909C56.6696 25.4455 59.6435 23.8091 62.3696 23.8091V23.8091ZM77.3217 32.6455C77.5696 32.6455 77.8174 32.5637 77.9826 32.4818V34.1182C77.487 34.2818 76.9913 34.3637 76.4956 34.3637C75.587 34.3637 74.8435 34.0364 74.4304 33.1364C73.4391 33.9546 72.2 34.4455 70.5478 34.4455C68.6478 34.4455 66.913 33.4637 66.913 31.3364C66.913 28.7182 69.3913 27.9 71.4565 27.9C72.3652 27.9 73.2739 27.9818 74.1 28.2273V27.9C74.1 26.5909 73.1913 25.7727 71.3739 25.7727C70.1348 25.7727 68.813 26.0182 67.6565 26.5909V24.5455C68.8956 24.1364 70.2174 23.8909 71.6217 23.8909C74.513 23.8909 76.413 25.2818 76.413 28.3091V31.9091C76.5783 32.4818 76.9087 32.6455 77.3217 32.6455V32.6455ZM69.3913 31.2546C69.3913 32.2364 70.3 32.7273 71.2913 32.7273C72.3652 32.7273 73.4391 32.3182 74.2652 31.5V29.7818C73.5217 29.6182 72.7783 29.5364 72.0348 29.5364C70.7956 29.6182 69.3913 30.0273 69.3913 31.2546V31.2546ZM90.0435 19.3909V34.2H87.9783V32.5637C87.1522 33.5455 85.9956 34.4455 84.013 34.4455C80.8739 34.4455 78.8913 31.9909 78.8913 29.0455C78.8913 26.1 80.8739 23.6455 84.013 23.6455C85.8304 23.6455 86.9869 24.4637 87.7304 25.2V19.2273H90.0435V19.3909V19.3909ZM84.5087 25.7727C82.6913 25.7727 81.287 27.1637 81.287 29.1273C81.287 31.0909 82.6087 32.4818 84.5087 32.4818C85.913 32.4818 87.2348 31.6637 87.813 30.3546V27.9C87.2348 26.5909 85.913 25.7727 84.5087 25.7727V25.7727ZM97.4783 23.8091C101.526 23.8091 103.013 27.0818 102.352 30.0273H94.587C94.8348 31.8273 96.6522 32.6455 98.5522 32.6455C99.7087 32.6455 100.783 32.4 101.774 31.9091V33.8727C100.865 34.2818 99.5435 34.6091 98.0565 34.6091C94.9174 34.6091 92.1913 32.8091 92.1913 29.2091C92.2739 25.4455 95.0826 23.8091 97.4783 23.8091V23.8091ZM97.6435 25.6909C96.0739 25.6909 94.7522 26.5909 94.587 28.3091H100.287C100.37 27.4091 99.8739 25.6909 97.6435 25.6909ZM104.665 34.2818V24.0546H106.73V25.3637C107.309 24.7091 108.465 23.8091 110.117 23.8091C111.687 23.8091 112.761 24.4637 113.339 25.4455C114.248 24.5455 115.404 23.8091 116.974 23.8091C119.7 23.8091 120.857 25.7727 120.857 27.9V34.2818H118.543V27.9818C118.543 26.6727 117.717 25.8546 116.478 25.8546C115.322 25.8546 114.496 26.5909 113.917 27.2455C113.917 27.4909 114 27.7364 114 27.9818V34.3637H111.687V28.0637C111.687 26.7546 110.861 25.9364 109.622 25.9364C108.383 25.9364 107.474 26.8364 106.896 27.4909V34.3637L104.665 34.2818V34.2818ZM130.935 24.0546H133.33L128.539 35.5909C127.465 38.2091 125.978 39.1091 124.409 39.1091C123.913 39.1091 123.5 39.0273 123.087 38.9455V36.9818C123.417 37.0637 123.748 37.1455 124.161 37.1455C125.235 37.1455 126.143 36.3273 126.722 34.7727L126.97 34.2818L122.096 24.0546H124.574L128.043 31.7455L130.935 24.0546ZM47.8304 1.55457V7.36366C48.7391 6.46366 49.8956 5.97275 51.1348 5.97275C53.6956 5.97275 55.3478 7.69093 55.3478 10.1455V16.4455H53.0348V10.4727C53.0348 8.83638 52.0435 8.0182 50.6391 8.0182C49.3174 8.0182 48.3261 8.9182 47.7478 9.73638V16.4455H45.4348V1.55457H47.8304ZM61.6261 2.6182V6.2182H65.3435V8.18184H61.6261V12.8455C61.6261 14.1546 62.287 14.6455 63.6087 14.6455C64.3522 14.6455 65.013 14.4818 65.6739 14.2364V16.2C64.7652 16.5273 63.8565 16.6909 62.9478 16.6091C60.9652 16.6091 59.3956 15.6273 59.3956 13.2546V8.18184H57.5783V6.2182H59.3956V3.19093L61.6261 2.6182V2.6182ZM68.2348 16.4455V6.2182H70.3V7.52729C70.8783 6.95457 72.0348 5.97275 73.6869 5.97275C75.2565 5.97275 76.3304 6.62729 76.9087 7.60911C77.8174 6.70911 78.9739 5.97275 80.5435 5.97275C83.2696 5.97275 84.4261 7.93638 84.4261 10.0637V16.4455H82.113V10.1455C82.113 8.83638 81.287 8.0182 80.0478 8.0182C78.8913 8.0182 78.0652 8.75457 77.487 9.40911C77.487 9.65457 77.5696 9.90002 77.5696 10.1455V16.5273H75.2565V10.2273C75.2565 8.9182 74.4304 8.10002 73.1913 8.10002C71.9522 8.10002 71.0435 9.00002 70.4652 9.65457V16.5273L68.2348 16.4455V16.4455ZM87.813 1.55457H90.1261V16.3637H87.813V1.55457V1.55457Z" fill="black"/>
</g>
<defs>
<clipPath id="clip0_241_149">
<rect width="133" height="45" fill="white"/>
</clipPath>
</defs>
</svg>
