<svg width="328" height="418" viewBox="0 0 328 418" fill="none" xmlns="http://www.w3.org/2000/svg">
<path d="M0 309.172V390.689C0 405.708 12.2121 417.861 27.3041 417.861H300.348C315.44 417.861 327.653 405.708 327.653 390.689V309.172C327.653 264.142 291.018 227.655 245.74 227.655H238.738C235.066 227.655 232.122 230.626 231.77 234.263C228.43 268.684 199.288 295.587 163.825 295.587C128.362 295.587 99.2202 268.684 95.8825 234.263C95.5305 230.626 92.5868 227.655 88.9137 227.655H81.9117C36.6885 227.655 0 264.142 0 309.172Z" fill="#f7f7f7"/>
<path d="M163.826 223.411C218.059 223.411 262.042 173.394 262.042 111.704C262.042 50.0145 218.059 0 163.826 0C109.592 0 65.6086 50.0167 65.6086 111.707C65.6086 173.397 109.592 223.411 163.826 223.411ZM163.826 111.707C189.45 111.707 210.825 98.8079 217.565 81.2724C227.65 93.3664 233.98 108.707 233.98 125.672C233.98 164.234 202.546 195.487 163.826 195.487C125.076 195.487 93.6711 164.234 93.6711 125.672C93.6711 108.707 138.201 111.707 163.826 111.707Z" fill="#f7f7f7"/>
</svg>
