<svg width="30" height="30" viewBox="0 0 30 30" fill="none" xmlns="http://www.w3.org/2000/svg">
<path d="M29.3617 4.7872H0.638265C0.633918 4.7872 0.629633 4.78763 0.625347 4.78769L0.625408 4.78787C0.278939 4.79479 0 5.07704 0 5.42553V24.5745C0 24.9272 0.285857 25.2128 0.638265 25.2128H29.3617C29.7142 25.2128 30 24.9272 30 24.5745V5.42553C30 5.07269 29.7142 4.7872 29.3617 4.7872ZM27.8208 6.06385L19.3363 14.5483C19.3362 14.5485 19.336 14.5485 19.3359 14.5486L15 18.8846L10.6641 14.5486C10.6638 14.5484 10.6636 14.5482 10.6633 14.5479L2.17922 6.06385H27.8208ZM1.27659 6.96636L9.31016 14.9999L1.27659 23.0336V6.96636ZM2.17922 23.9361L10.2128 15.9025L14.5488 20.2385C14.771 20.4607 15.1183 20.5715 15.4514 20.2385L19.7873 15.9026L27.8209 23.9361H2.17922ZM28.7234 23.0334L20.6899 14.9999L28.7234 6.96643V23.0334Z" fill="currentColor"/>
</svg>
