<svg width="30" height="30" viewBox="0 0 30 30" fill="none" xmlns="http://www.w3.org/2000/svg">
<path d="M22.2289 0H7.77112C6.77463 0 5.96375 0.810576 5.96375 1.80737V28.1929C5.96375 29.1891 6.77432 30 7.77112 30H22.2289C23.2254 30 24.0362 29.1897 24.0362 28.1929V1.80706C24.0362 0.810576 23.2254 0 22.2289 0ZM14.0562 1.21958H16.8573C16.9821 1.21958 17.0831 1.3209 17.0831 1.44547C17.0831 1.57034 16.9821 1.67135 16.8573 1.67135H14.0562C13.9316 1.67135 13.8303 1.57034 13.8303 1.44547C13.8303 1.3209 13.9316 1.21958 14.0562 1.21958ZM13.1877 1.13809C13.3373 1.13809 13.4588 1.25955 13.4588 1.40921C13.4588 1.55887 13.3373 1.68033 13.1877 1.68033C13.038 1.68033 12.9165 1.55887 12.9165 1.40921C12.9165 1.25955 13.038 1.13809 13.1877 1.13809ZM15 28.9837C14.7004 28.9837 14.4578 28.7411 14.4578 28.4414C14.4578 28.1415 14.7004 27.8992 15 27.8992C15.2993 27.8992 15.5422 28.1415 15.5422 28.4414C15.5422 28.7411 15.2993 28.9837 15 28.9837ZM22.5905 27.3343H7.40952V2.66567H22.5905V27.3343Z" fill="currentColor"/>
</svg>
