<svg xmlns="http://www.w3.org/2000/svg" width="101" height="100" fill="none"><path d="M80.092 0H20.908C9.637 0 .5 9.137.5 20.408v59.184C.5 90.863 9.637 100 20.908 100h59.184c11.271 0 20.408-9.137 20.408-20.408V20.408C100.5 9.137 91.363 0 80.092 0z" fill="url(#logo-linear-gradient)"/><path d="M20.506 47.15a1.737 1.737 0 002.43.266l1.602-1.288v26.896a3.147 3.147 0 003.137 3.14h44.61a3.149 3.149 0 003.141-3.14v-26.84l1.553 1.248c.308.244.69.377 1.082.378a1.708 1.708 0 001.349-.66 1.738 1.738 0 00-.266-2.434L51.84 22.763l-.626-.313a3.087 3.087 0 00-2.482 0l-.657.305L20.773 44.71a1.736 1.736 0 00-.265 2.43" fill="#fff"/><path d="M60.926 63.03a6.532 6.532 0 002.309-1.569 7.117 7.117 0 001.459-2.353c.362-.908.543-1.88.532-2.857a7.364 7.364 0 00-.532-2.888 7.002 7.002 0 00-1.46-2.322 6.882 6.882 0 00-2.308-1.584 7.961 7.961 0 00-2.995-.565h-4.22v14.781h4.22a8.026 8.026 0 002.995-.642zm-2.995-18.593a12.68 12.68 0 014.753.894 12.402 12.402 0 013.86 2.528 11.659 11.659 0 012.589 3.765c.634 1.46.95 3.038.926 4.629a11.45 11.45 0 01-.926 4.629 12.634 12.634 0 01-2.588 3.767 11.278 11.278 0 01-3.861 2.48 11.826 11.826 0 01-4.753.926h-9.053V44.437h9.053zm-20.805 9.778a2.963 2.963 0 11.006-5.926 2.963 2.963 0 01-.006 5.926zm0-10.184a7.217 7.217 0 00-5.107 12.323 7.217 7.217 0 105.107-12.323z" fill="#231F20"/><defs><linearGradient id="logo-linear-gradient" x1="50.5" y1="0" x2="50.5" y2="100" gradientUnits="userSpaceOnUse"><stop stop-color="#7FB0F8"/><stop offset="1" stop-color="#D5D3FF"/></linearGradient></defs></svg>