<svg width="133" height="45" fill="none" xmlns="http://www.w3.org/2000/svg"><g clip-path="url(#clip0_241_149)"><path d="M1.157 2.864l16.852-1.718 16.77 1.718v30.681l-16.77 9.819-16.852-9.819V2.864z" stroke="#000" stroke-width="2.791"/><path d="M1.404 17.1L17.43 7.854 34.696 17.1v.982l-16.687 9.736-16.605-9.736V17.1v0z" stroke="#000" stroke-width="2.057"/><path d="M18.009 26.836l2.395-1.554-2.395-1.555v-1.554l3.882 2.29 1.24-.736-5.122-3.027v-1.8l6.526 3.927 1.322-.736-7.848-4.827v-1.718l10.656 6.463v6.873L18.01 35.264 7.187 29.045v-1.8l10.822 6.464v-1.718l-10.822-6.3v-1.555l10.822 6.219v-3.519zm37.091 5.81c.248 0 .496-.082.66-.164v1.636a4.72 4.72 0 01-1.486.246c-.909 0-1.652-.328-2.065-1.228-.992.819-2.23 1.31-3.883 1.31-1.9 0-3.635-.982-3.635-3.11 0-2.618 2.479-3.436 4.544-3.436.909 0 1.817.082 2.643.327V27.9c0-1.31-.908-2.127-2.726-2.127-1.239 0-2.56.245-3.717.818v-2.046a12.58 12.58 0 013.965-.654c2.891 0 4.791 1.39 4.791 4.418v3.6c.083.573.496.736.909.736zm-8.013-1.391c0 .981.909 1.472 1.9 1.472a4.213 4.213 0 002.974-1.227v-1.718a10.352 10.352 0 00-2.23-.246c-1.24.082-2.644.491-2.644 1.719zm15.283-7.446c1.156 0 2.23.246 3.139.818v2.046c-.744-.491-1.818-.818-2.809-.818-1.817 0-3.635.981-3.635 3.354 0 2.291 1.818 3.355 3.635 3.355 1.074 0 2.065-.246 2.974-.819v2.128c-.991.49-2.065.736-3.387.736-2.726 0-5.535-1.636-5.535-5.318-.082-3.846 2.892-5.482 5.618-5.482zm14.952 8.836c.248 0 .495-.081.66-.163v1.636a4.72 4.72 0 01-1.486.246c-.909 0-1.652-.328-2.066-1.228-.99.819-2.23 1.31-3.882 1.31-1.9 0-3.635-.982-3.635-3.11 0-2.618 2.478-3.436 4.544-3.436.908 0 1.817.082 2.643.327V27.9c0-1.31-.909-2.127-2.726-2.127-1.24 0-2.561.245-3.718.818v-2.046a12.59 12.59 0 013.966-.654c2.891 0 4.791 1.39 4.791 4.418v3.6c.165.573.496.736.909.736zm-7.93-1.39c0 .981.908 1.472 1.9 1.472a4.213 4.213 0 002.973-1.227v-1.718a10.35 10.35 0 00-2.23-.246c-1.24.082-2.644.491-2.644 1.719zm20.65-11.865V34.2h-2.065v-1.636c-.826.981-1.982 1.882-3.965 1.882-3.14 0-5.122-2.455-5.122-5.4 0-2.946 1.983-5.4 5.122-5.4 1.817 0 2.974.818 3.717 1.554v-5.973h2.313v.164zm-5.534 6.382c-1.818 0-3.222 1.39-3.222 3.354 0 1.964 1.322 3.355 3.222 3.355 1.404 0 2.726-.818 3.304-2.127V27.9c-.578-1.31-1.9-2.127-3.304-2.127zm12.97-1.964c4.047 0 5.534 3.273 4.873 6.218h-7.765c.248 1.8 2.065 2.618 3.965 2.618a7.16 7.16 0 003.222-.736v1.964c-.909.409-2.23.736-3.718.736-3.139 0-5.865-1.8-5.865-5.4.083-3.764 2.892-5.4 5.287-5.4zm.165 1.882c-1.57 0-2.892.9-3.057 2.618h5.7c.083-.9-.413-2.618-2.644-2.618zm7.021 8.59V24.056h2.065v1.309c.579-.655 1.735-1.555 3.387-1.555 1.57 0 2.644.655 3.222 1.636.909-.9 2.065-1.636 3.635-1.636 2.726 0 3.883 1.964 3.883 4.091v6.382h-2.314v-6.3c0-1.31-.826-2.127-2.065-2.127-1.156 0-1.982.736-2.561 1.39 0 .246.083.491.083.737v6.382h-2.313v-6.3c0-1.31-.826-2.128-2.065-2.128-1.239 0-2.148.9-2.726 1.555v6.873l-2.231-.082zm26.27-10.226h2.395l-4.791 11.536c-1.074 2.618-2.561 3.518-4.13 3.518-.496 0-.909-.082-1.322-.163v-1.964c.33.082.661.163 1.074.163 1.074 0 1.982-.818 2.561-2.372l.248-.491-4.874-10.227h2.478l3.469 7.69 2.892-7.69zM47.83 1.555v5.809c.91-.9 2.066-1.391 3.305-1.391 2.56 0 4.213 1.718 4.213 4.173v6.3h-2.313v-5.973c0-1.637-.991-2.455-2.396-2.455-1.322 0-2.313.9-2.891 1.718v6.71h-2.313V1.554h2.395zm13.796 1.063v3.6h3.718v1.964h-3.718v4.663c0 1.31.661 1.8 1.983 1.8.743 0 1.404-.163 2.065-.409V16.2c-.909.327-1.818.49-2.726.41-1.983 0-3.552-.983-3.552-3.355V8.182h-1.818V6.218h1.818V3.191l2.23-.573zm6.609 13.827V6.218H70.3v1.31c.578-.573 1.735-1.555 3.387-1.555 1.57 0 2.643.654 3.222 1.636.908-.9 2.065-1.636 3.634-1.636 2.727 0 3.883 1.963 3.883 4.09v6.382h-2.313v-6.3c0-1.309-.826-2.127-2.065-2.127-1.157 0-1.983.737-2.561 1.391 0 .246.083.491.083.736v6.382h-2.313v-6.3c0-1.309-.827-2.127-2.066-2.127-1.239 0-2.148.9-2.726 1.555v6.872l-2.23-.082zm19.578-14.89h2.313v14.809h-2.313V1.554z" fill="#000"/></g><defs><clipPath id="clip0_241_149"><path fill="#fff" d="M0 0h133v45H0z"/></clipPath></defs></svg>