<svg data-name="Layer 1" xmlns="http://www.w3.org/2000/svg" viewBox="0 0 122.88 92.73"><path d="M70.15 25.38l-4.21 7.42L51.53 7.42 7.29 85.31h30a7.36 7.36 0 007.3 7.42H7.29A7.26 7.26 0 011 89a7.5 7.5 0 010-7.4L45.21 3.71a7.24 7.24 0 0112.64 0l12.3 21.67z" fill="#00c58e"/><path d="M102.08 81.6L74.37 32.8l-4.22-7.42-4.21 7.42-27.72 48.8a7.55 7.55 0 000 7.42 7.27 7.27 0 006.32 3.71h51.22a7.27 7.27 0 006.32-3.73 7.55 7.55 0 000-7.42zm-57.54 3.71l25.61-45.1 25.61 45.1z" fill="#2f495e"/><path d="M121.9 89a7.26 7.26 0 01-6.31 3.71H95.76a7.35 7.35 0 007.29-7.42h12.52L80.06 22.77l-5.69 10-4.22-7.42 3.59-6.32a7.24 7.24 0 0112.64 0L121.9 81.6a7.5 7.5 0 010 7.42z" fill="#108775"/></svg>