<svg width="328" height="418" fill="none" xmlns="http://www.w3.org/2000/svg"><path d="M0 309.172v81.517c0 15.019 12.212 27.172 27.304 27.172h273.044c15.092 0 27.305-12.153 27.305-27.172v-81.517c0-45.03-36.635-81.517-81.913-81.517h-7.002c-3.672 0-6.616 2.971-6.968 6.608-3.34 34.421-32.482 61.324-67.945 61.324-35.463 0-64.605-26.903-67.942-61.324-.352-3.637-3.296-6.608-6.97-6.608h-7.001C36.688 227.655 0 264.142 0 309.172zm163.826-85.761c54.233 0 98.216-50.017 98.216-111.707C262.042 50.014 218.059 0 163.826 0c-54.234 0-98.217 50.017-98.217 111.707 0 61.69 43.983 111.704 98.217 111.704zm0-111.704c25.624 0 46.999-12.9 53.739-30.435 10.085 12.094 16.415 27.435 16.415 44.4 0 38.562-31.434 69.815-70.154 69.815-38.75 0-70.155-31.253-70.155-69.815 0-16.965 44.53-13.965 70.155-13.965z" fill="#f7f7f7"/></svg>