<svg xmlns="http://www.w3.org/2000/svg" xmlns:xlink="http://www.w3.org/1999/xlink"><symbol id="arrow-big" viewBox="0 0 490 490">
<g>
	<g>
		<g>
			<polygon points="240.112,0 481.861,245.004 240.112,490 8.139,490 250.29,245.004 8.139,0" fill="currentColor"/>
		</g>
	</g>
	<g>
	</g>
	<g>
	</g>
	<g>
	</g>
	<g>
	</g>
	<g>
	</g>
	<g>
	</g>
	<g>
	</g>
	<g>
	</g>
	<g>
	</g>
	<g>
	</g>
	<g>
	</g>
	<g>
	</g>
	<g>
	</g>
	<g>
	</g>
	<g>
	</g>
</g>
<g>
</g>
<g>
</g>
<g>
</g>
<g>
</g>
<g>
</g>
<g>
</g>
<g>
</g>
<g>
</g>
<g>
</g>
<g>
</g>
<g>
</g>
<g>
</g>
<g>
</g>
<g>
</g>
<g>
</g>
</symbol><symbol id="arrow-down" viewBox="0 0 1024 1024"><path d="M8.2 275.4c0-8.6 3.4-17.401 10-24.001 13.2-13.2 34.8-13.2 48 0l451.8 451.8 445.2-445.2c13.2-13.2 34.8-13.2 48 0s13.2 34.8 0 48L542 775.399c-13.2 13.2-34.8 13.2-48 0l-475.8-475.8c-6.8-6.8-10-15.4-10-24.199z" fill="currentColor"/></symbol><symbol id="close" viewBox="0 0 24 24">
<path d="M6.22566 4.81096C5.83514 4.42044 5.20197 4.42044 4.81145 4.81096C4.42092 5.20148 4.42092 5.83465 4.81145 6.22517L10.5862 11.9999L4.81151 17.7746C4.42098 18.1651 4.42098 18.7983 4.81151 19.1888C5.20203 19.5793 5.8352 19.5793 6.22572 19.1888L12.0004 13.4141L17.7751 19.1888C18.1656 19.5793 18.7988 19.5793 19.1893 19.1888C19.5798 18.7983 19.5798 18.1651 19.1893 17.7746L13.4146 11.9999L19.1893 6.22517C19.5799 5.83465 19.5799 5.20148 19.1893 4.81096C18.7988 4.42044 18.1657 4.42044 17.7751 4.81096L12.0004 10.5857L6.22566 4.81096Z" fill="currentColor"/>
</symbol><symbol id="envelope" viewBox="0 0 30 30">
<path d="M29.3617 4.7872H0.638265C0.633918 4.7872 0.629633 4.78763 0.625347 4.78769L0.625408 4.78787C0.278939 4.79479 0 5.07704 0 5.42553V24.5745C0 24.9272 0.285857 25.2128 0.638265 25.2128H29.3617C29.7142 25.2128 30 24.9272 30 24.5745V5.42553C30 5.07269 29.7142 4.7872 29.3617 4.7872ZM27.8208 6.06385L19.3363 14.5483C19.3362 14.5485 19.336 14.5485 19.3359 14.5486L15 18.8846L10.6641 14.5486C10.6638 14.5484 10.6636 14.5482 10.6633 14.5479L2.17922 6.06385H27.8208ZM1.27659 6.96636L9.31016 14.9999L1.27659 23.0336V6.96636ZM2.17922 23.9361L10.2128 15.9025L14.5488 20.2385C14.771 20.4607 15.1183 20.5715 15.4514 20.2385L19.7873 15.9026L27.8209 23.9361H2.17922ZM28.7234 23.0334L20.6899 14.9999L28.7234 6.96643V23.0334Z" fill="currentColor"/>
</symbol><symbol id="external-link" viewBox="0 0 24 24">
  <path fill-rule="evenodd" d="M19,14 L19,19 C19,20.1045695 18.1045695,21 17,21 L5,21 C3.8954305,21 3,20.1045695 3,19 L3,7 C3,5.8954305 3.8954305,5 5,5 L10,5 L10,7 L5,7 L5,19 L17,19 L17,14 L19,14 Z M18.9971001,6.41421356 L11.7042068,13.7071068 L10.2899933,12.2928932 L17.5828865,5 L12.9971001,5 L12.9971001,3 L20.9971001,3 L20.9971001,11 L18.9971001,11 L18.9971001,6.41421356 Z" fill="currentColor"/>
</symbol><symbol id="icon-fb" viewBox="0 0 67 67"><path d="M28.765,50.32h6.744V33.998h4.499l0.596-5.624h-5.095  l0.007-2.816c0-1.466,0.14-2.253,2.244-2.253h2.812V17.68h-4.5c-5.405,0-7.307,2.729-7.307,7.317v3.377h-3.369v5.625h3.369V50.32z   M33,64C16.432,64,3,50.568,3,34C3,17.431,16.432,4,33,4s30,13.431,30,30C63,50.568,49.568,64,33,64z" style="fill-rule:evenodd;clip-rule:evenodd;" fill="currentColor"/></symbol><symbol id="icon-gh" viewBox="0 0 67 67"><path d="M20.543,34.568c-0.054,0,0.592,1.367,0.61,1.367  c1.41,2.516,4.128,4.08,8.713,4.514c-0.654,0.488-1.44,1.414-1.549,2.484c-0.823,0.523-2.478,0.696-3.764,0.297  c-1.803-0.559-2.493-4.066-5.192-3.566c-0.584,0.107-0.468,0.486,0.037,0.809c0.823,0.523,1.597,1.178,2.194,2.571  c0.459,1.07,1.423,2.981,4.473,2.981c1.21,0,2.058-0.143,2.058-0.143s0.023,2.731,0.023,3.793c0,1.225-1.682,1.57-1.682,2.159  c0,0.233,0.557,0.255,1.004,0.255c0.884,0,2.723-0.725,2.723-1.998c0-1.011,0.017-4.41,0.017-5.006c0-1.3,0.709-1.712,0.709-1.712  s0.088,6.94-0.169,7.872c-0.302,1.094-0.847,0.939-0.847,1.427c0,0.726,2.214,0.179,2.948-1.416c0.567-1.239,0.319-8.05,0.319-8.05  l0.605-0.012c0,0,0.034,3.117,0.013,4.542c-0.021,1.476-0.123,3.342,0.769,4.222c0.586,0.579,2.484,1.594,2.484,0.666  c0-0.539-1.04-0.982-1.04-2.441v-6.715c0.831,0,0.706,2.208,0.706,2.208l0.061,4.103c0,0-0.184,1.494,1.645,2.119  c0.645,0.223,2.025,0.283,2.09-0.09c0.065-0.373-1.662-0.928-1.678-2.084c-0.01-0.707,0.032-1.119,0.032-4.187  c0-3.068-0.419-4.202-1.88-5.106c4.508-0.455,7.299-1.551,8.658-4.486c0.106,0.003,0.555-1.371,0.496-1.371  c0.305-1.108,0.47-2.419,0.502-3.971c-0.008-4.21-2.058-5.699-2.451-6.398c0.58-3.187-0.098-4.637-0.412-5.135  c-1.162-0.406-4.041,1.045-5.615,2.067c-2.564-0.737-7.986-0.666-10.019,0.19c-3.751-2.639-5.736-2.235-5.736-2.235  s-1.283,2.259-0.339,5.565c-1.234,1.546-2.154,2.64-2.154,5.539C19.906,31.83,20.102,33.292,20.543,34.568z M33,64  C16.432,64,3,50.568,3,34C3,17.431,16.432,4,33,4s30,13.431,30,30C63,50.568,49.568,64,33,64z" style="fill-rule:evenodd;clip-rule:evenodd;" fill="currentColor"/></symbol><symbol id="icon-inst" viewBox="0 0 67 67"><path d="M42.271,26.578v-0.006c0.502,0,1.005,0.01,1.508-0.002  c0.646-0.016,1.172-0.57,1.172-1.217c0-0.963,0-1.927,0-2.89c0-0.691-0.547-1.24-1.236-1.241c-0.961,0-1.922-0.001-2.883,0  c-0.688,0.001-1.236,0.552-1.236,1.243c-0.001,0.955-0.004,1.91,0.003,2.865c0.001,0.143,0.028,0.291,0.073,0.426  c0.173,0.508,0.639,0.82,1.209,0.823C41.344,26.579,41.808,26.578,42.271,26.578z M33,27.817c-3.384-0.002-6.135,2.721-6.182,6.089  c-0.049,3.46,2.72,6.201,6.04,6.272c3.454,0.074,6.248-2.686,6.321-6.043C39.254,30.675,36.462,27.815,33,27.817z M21.046,31.116  v0.082c0,4.515-0.001,9.03,0,13.545c0,0.649,0.562,1.208,1.212,1.208c7.16,0.001,14.319,0.001,21.479,0  c0.656,0,1.215-0.557,1.215-1.212c0.001-4.509,0-9.02,0-13.528v-0.094h-2.912c0.411,1.314,0.537,2.651,0.376,4.014  c-0.161,1.363-0.601,2.631-1.316,3.803s-1.644,2.145-2.779,2.918c-2.944,2.006-6.821,2.182-9.946,0.428  c-1.579-0.885-2.819-2.12-3.685-3.713c-1.289-2.373-1.495-4.865-0.739-7.451C22.983,31.116,22.021,31.116,21.046,31.116z   M45.205,49.255c0.159-0.026,0.318-0.049,0.475-0.083c1.246-0.265,2.264-1.304,2.508-2.557c0.025-0.137,0.045-0.273,0.067-0.409  V21.794c-0.021-0.133-0.04-0.268-0.065-0.401c-0.268-1.367-1.396-2.428-2.78-2.618c-0.058-0.007-0.113-0.02-0.17-0.03H20.761  c-0.147,0.027-0.296,0.047-0.441,0.08c-1.352,0.308-2.352,1.396-2.545,2.766c-0.008,0.057-0.02,0.114-0.029,0.171V46.24  c0.028,0.154,0.05,0.311,0.085,0.465c0.299,1.322,1.427,2.347,2.77,2.52c0.064,0.008,0.13,0.021,0.195,0.03H45.205z M33,64  C16.432,64,3,50.568,3,34C3,17.431,16.432,4,33,4s30,13.431,30,30C63,50.568,49.568,64,33,64z" style="fill-rule:evenodd;clip-rule:evenodd;" fill="currentColor"/></symbol><symbol id="smartphone" viewBox="0 0 30 30">
<path d="M22.2289 0H7.77112C6.77463 0 5.96375 0.810576 5.96375 1.80737V28.1929C5.96375 29.1891 6.77432 30 7.77112 30H22.2289C23.2254 30 24.0362 29.1897 24.0362 28.1929V1.80706C24.0362 0.810576 23.2254 0 22.2289 0ZM14.0562 1.21958H16.8573C16.9821 1.21958 17.0831 1.3209 17.0831 1.44547C17.0831 1.57034 16.9821 1.67135 16.8573 1.67135H14.0562C13.9316 1.67135 13.8303 1.57034 13.8303 1.44547C13.8303 1.3209 13.9316 1.21958 14.0562 1.21958ZM13.1877 1.13809C13.3373 1.13809 13.4588 1.25955 13.4588 1.40921C13.4588 1.55887 13.3373 1.68033 13.1877 1.68033C13.038 1.68033 12.9165 1.55887 12.9165 1.40921C12.9165 1.25955 13.038 1.13809 13.1877 1.13809ZM15 28.9837C14.7004 28.9837 14.4578 28.7411 14.4578 28.4414C14.4578 28.1415 14.7004 27.8992 15 27.8992C15.2993 27.8992 15.5422 28.1415 15.5422 28.4414C15.5422 28.7411 15.2993 28.9837 15 28.9837ZM22.5905 27.3343H7.40952V2.66567H22.5905V27.3343Z" fill="currentColor"/>
</symbol><symbol id="telegram" viewBox="0 0 30 30">
<path d="M25.8871 4.56812C25.8871 4.56812 28.3154 3.62124 28.113 5.9208C28.0456 6.86769 27.4385 10.1817 26.9663 13.7664L25.3474 24.3849C25.3474 24.3849 25.2126 25.9405 23.9984 26.2111C22.7842 26.4816 20.963 25.2642 20.6257 24.9936C20.3559 24.7907 15.5668 21.7472 13.8804 20.2592C13.4082 19.8534 12.8686 19.0418 13.9478 18.0949L21.0304 11.3316C21.8399 10.5199 22.6493 8.62619 19.2766 10.9257L9.83319 17.351C9.83319 17.351 8.75394 18.0273 6.73038 17.4186L2.34589 16.0659C2.34589 16.0659 0.727007 15.0514 3.49259 14.0369C10.2379 10.8581 18.5347 7.61162 25.8871 4.56812Z" fill="currentColor"/>
</symbol><symbol id="web-development" viewBox="0 0 399.997 399.997">
<g>
	<g>
		<g>
			<path d="M281.547,143.478c-0.456-2.581-2.917-4.305-5.501-3.851l-17.05,3.005c-2.047-4.803-4.662-9.302-7.764-13.418
				l11.139-13.272c0.809-0.965,1.201-2.211,1.094-3.466c-0.111-1.256-0.715-2.414-1.68-3.225l-14.913-12.514
				c-0.964-0.809-2.213-1.202-3.468-1.093c-1.254,0.109-2.413,0.714-3.224,1.678l-11.13,13.265c-4.566-2.326-9.45-4.123-14.57-5.306
				V87.969c0-2.624-2.125-4.751-4.748-4.751h-19.466c-2.622,0-4.748,2.127-4.748,4.751v17.312
				c-5.122,1.183-10.004,2.979-14.572,5.306l-11.128-13.265c-1.688-2.008-4.682-2.271-6.69-0.584l-14.913,12.513
				c-0.966,0.811-1.568,1.969-1.68,3.225c-0.107,1.255,0.284,2.501,1.094,3.466l11.138,13.272
				c-3.102,4.116-5.716,8.617-7.763,13.418l-17.05-3.005c-2.579-0.454-5.045,1.27-5.501,3.851l-3.381,19.173
				c-0.218,1.24,0.064,2.519,0.788,3.549c0.722,1.032,1.823,1.733,3.064,1.951l17.063,3.011c0.277,5.284,1.197,10.398,2.68,15.268
				l-14.994,8.657c-1.092,0.631-1.886,1.665-2.213,2.882c-0.325,1.219-0.154,2.514,0.475,3.604l9.733,16.86
				c0.63,1.092,1.667,1.886,2.885,2.212c0.403,0.109,0.816,0.163,1.229,0.163c0.826,0,1.645-0.216,2.373-0.638l15.009-8.664
				c3.533,3.776,7.518,7.127,11.868,9.967l-5.926,16.277c-0.43,1.184-0.375,2.489,0.158,3.631c0.533,1.142,1.496,2.022,2.68,2.455
				l18.294,6.658c0.524,0.19,1.075,0.286,1.625,0.286c0.686,0,1.371-0.149,2.005-0.444c1.142-0.532,2.025-1.496,2.456-2.681
				l5.925-16.278c2.54,0.307,5.127,0.469,7.75,0.469s5.21-0.162,7.75-0.469l5.926,16.278c0.432,1.185,1.313,2.146,2.455,2.681
				c0.636,0.295,1.318,0.444,2.007,0.444c0.549,0,1.101-0.097,1.623-0.286l18.295-6.658c1.185-0.433,2.146-1.313,2.681-2.457
				c0.532-1.142,0.588-2.445,0.157-3.629l-5.927-16.277c4.352-2.84,8.335-6.188,11.868-9.967l15.009,8.664
				c0.729,0.422,1.547,0.637,2.373,0.637c0.412,0,0.826-0.053,1.229-0.162c1.218-0.326,2.253-1.12,2.884-2.212l9.732-16.86
				c0.631-1.089,0.802-2.385,0.477-3.604c-0.327-1.217-1.123-2.253-2.213-2.882l-14.994-8.657c1.48-4.87,2.402-9.983,2.68-15.268
				l17.063-3.011c1.241-0.218,2.341-0.919,3.062-1.951c0.726-1.031,1.006-2.309,0.788-3.549L281.547,143.478z M200,193.117
				c-14.424,0-26.117-11.692-26.117-26.116c0-14.424,11.693-26.116,26.117-26.116s26.117,11.692,26.117,26.116
				C226.117,181.425,214.424,193.117,200,193.117z" fill="currentColor"/>
			<path d="M366.684,24.971H33.316C14.945,24.971,0,39.917,0,58.288V275.56c0,18.371,14.945,33.317,33.316,33.317h107.412
				l-20.387,44.955c-2.105,4.643-1.709,10.037,1.053,14.321c2.762,4.285,7.51,6.873,12.607,6.873h131.996c0,0,0.014,0,0.02,0
				c8.285,0,15-6.715,15-15c0-2.493-0.605-4.848-1.686-6.916l-20.062-44.233h107.412c18.371,0,33.316-14.946,33.316-33.317V58.288
				C400,39.917,385.055,24.971,366.684,24.971z M370,275.561c0,1.829-1.488,3.316-3.316,3.316H33.316
				c-1.828,0-3.316-1.487-3.316-3.316V58.288c0-1.829,1.488-3.317,3.316-3.317h333.367c1.828,0,3.316,1.488,3.316,3.317L370,275.561
				L370,275.561z" fill="currentColor"/>
		</g>
	</g>
</g>
<g>
</g>
<g>
</g>
<g>
</g>
<g>
</g>
<g>
</g>
<g>
</g>
<g>
</g>
<g>
</g>
<g>
</g>
<g>
</g>
<g>
</g>
<g>
</g>
<g>
</g>
<g>
</g>
<g>
</g>
</symbol></svg>